<?xml version="1.0" encoding="UTF-8"?>
<svg version="1.1" xmlns="http://www.w3.org/2000/svg" width="2000" height="1500">
<path d="M0 0 C660 0 1320 0 2000 0 C2000 495 2000 990 2000 1500 C1340 1500 680 1500 0 1500 C0 1005 0 510 0 0 Z " fill="#5B099B" transform="translate(0,0)"/>
<path d="M0 0 C3.5748656 0.36948818 7.14966909 0.68776923 10.73095703 0.98730469 C88.78374548 7.95484112 164.01183296 39.84412487 222.88330078 91.40136719 C224.29869141 92.62919922 224.29869141 92.62919922 225.74267578 93.88183594 C230.25470931 97.85379272 234.37293281 101.91864039 238.24658203 106.51464844 C239.83945803 108.35082769 241.50842234 110.02805752 243.25830078 111.71386719 C247.87117692 116.27571593 251.87377397 121.3112795 255.88330078 126.40136719 C256.3710498 127.01802246 256.85879883 127.63467773 257.36132812 128.27001953 C294.2079405 175.04969684 317.56063383 228.49895169 329.33349609 286.71484375 C329.84566826 289.21748254 330.38789267 291.71153108 330.93798828 294.20605469 C347.48918882 371.48724665 340.18982982 461.4263136 314.62744141 536.15209961 C313.7111567 538.92169638 312.8696249 541.7109786 312.02392578 544.50292969 C296.45017148 595.3447179 273.24339556 644.09633476 243.88330078 688.40136719 C243.35027344 689.20977051 242.81724609 690.01817383 242.26806641 690.85107422 C231.1030913 707.71183459 218.94105266 723.95671442 205.88330078 739.40136719 C205.45694336 739.91119141 205.03058594 740.42101563 204.59130859 740.94628906 C191.13457799 757.02618249 176.85281411 773.10275441 160.85205078 786.70996094 C158.60548571 788.64004561 156.43746174 790.64554858 154.25830078 792.65136719 C148.05407045 798.23423302 141.52115726 803.35134616 134.88330078 808.40136719 C134.16996582 808.9445459 133.45663086 809.48772461 132.72167969 810.04736328 C113.35695316 824.71862655 93.00058155 837.41376731 71.88330078 849.40136719 C71.18430664 849.80194336 70.4853125 850.20251953 69.76513672 850.61523438 C44.91893157 864.78135765 17.39709469 874.86243047 -10.11669922 882.40136719 C-11.06907471 882.66344971 -12.0214502 882.92553223 -13.00268555 883.19555664 C-24.67006213 886.35006568 -36.40245772 888.98263044 -48.30419922 891.08886719 C-49.350354 891.27892334 -50.39650879 891.46897949 -51.47436523 891.66479492 C-73.63367379 895.41875405 -95.84931146 896.88854302 -118.3034668 896.73754883 C-122.07801427 896.71371682 -125.85185968 896.71705727 -129.62646484 896.72363281 C-148.56481541 896.70228962 -167.21855878 895.61056877 -185.92919922 892.58886719 C-187.53396118 892.33447876 -187.53396118 892.33447876 -189.17114258 892.07495117 C-206.08077111 889.3340198 -222.80994916 886.19310769 -239.15136719 881.00439453 C-241.12090745 880.40007597 -243.09825485 879.85573766 -245.08935547 879.32714844 C-263.57520149 874.3526702 -281.25472813 866.39942198 -298.11669922 857.40136719 C-298.84050781 857.02012695 -299.56431641 856.63888672 -300.31005859 856.24609375 C-317.89774547 846.94246229 -334.31161509 835.86558 -348.11669922 821.40136719 C-348.92107422 820.59699219 -349.72544922 819.79261719 -350.55419922 818.96386719 C-351.39982422 818.11824219 -352.24544922 817.27261719 -353.11669922 816.40136719 C-353.69846924 815.840625 -354.28023926 815.27988281 -354.87963867 814.70214844 C-383.92113727 786.38928959 -398.69111981 745.94339731 -399.45263672 705.85449219 C-399.49333618 702.45319776 -399.49953752 699.0528713 -399.49169922 695.65136719 C-399.4911554 694.756073 -399.49061157 693.86077881 -399.49005127 692.93835449 C-399.44611871 677.10927888 -398.12513185 661.97012055 -395.11669922 646.40136719 C-394.90239258 645.25410156 -394.68808594 644.10683594 -394.46728516 642.92480469 C-390.02669136 619.39676766 -384.45956925 595.90929076 -377.46435547 573.00292969 C-375.12047836 565.17778875 -373.12557658 557.24623447 -371.05810547 549.34423828 C-369.22766236 542.39313058 -367.27420958 535.50474958 -365.12817383 528.64453125 C-364.08500048 525.29972924 -363.0750604 521.94642118 -362.07373047 518.58886719 C-348.97061367 474.67152654 -348.97061367 474.67152654 -343.42919922 458.40136719 C-341.57137963 452.93498368 -339.96398769 447.42464515 -338.40576172 441.86621094 C-335.188413 430.50441778 -331.70765173 419.23221361 -328.17919922 407.96386719 C-327.59109486 406.07786611 -327.00320402 404.19179844 -326.41552734 402.30566406 C-323.74383299 393.74140143 -321.05128492 385.18449754 -318.31489563 376.64067078 C-315.55446448 368.01633595 -312.8741871 359.38940584 -310.49169922 350.65136719 C-310.20157959 349.60174805 -309.91145996 348.55212891 -309.61254883 347.47070312 C-309.03752081 345.38946757 -308.46411581 343.30778269 -307.89257812 341.22558594 C-307.02216835 338.05727246 -306.1411142 334.89203246 -305.2578125 331.72729492 C-304.66774388 329.61026815 -304.08136137 327.49224727 -303.49560547 325.37402344 C-302.40763001 321.4419696 -301.30765526 317.5133552 -300.20654297 313.58496094 C-293.80328659 290.67019148 -288.35347256 267.81828036 -284.11669922 244.40136719 C-283.93123535 243.40669434 -283.74577148 242.41202148 -283.5546875 241.38720703 C-280.84754223 226.23755818 -276.85415653 202.03137452 -285.06591797 188.09277344 C-287.76243911 184.55391046 -289.72599244 182.95306875 -294.09716797 181.94433594 C-305.98740563 180.76925382 -317.41270287 189.40064173 -326.17919922 196.52636719 C-328.86506124 198.77434553 -331.50070585 201.07259737 -334.11669922 203.40136719 C-334.77621582 203.98789062 -335.43573242 204.57441406 -336.11523438 205.17871094 C-349.73836826 217.40108578 -361.19725391 230.75055314 -372.11669922 245.40136719 C-372.60847656 246.05717773 -373.10025391 246.71298828 -373.60693359 247.38867188 C-389.154872 268.14400302 -402.67179755 290.24903905 -416.11669922 312.40136719 C-418.42669922 311.74136719 -420.73669922 311.08136719 -423.11669922 310.40136719 C-423.8934529 261.69891139 -416.83469199 213.52206743 -395.11669922 169.40136719 C-394.72289062 168.59070801 -394.32908203 167.78004883 -393.92333984 166.94482422 C-383.10445076 144.86674243 -369.43348507 124.1309384 -352.63623047 106.13183594 C-350.63433054 103.96233508 -348.7008713 101.76358863 -346.77685547 99.52636719 C-336.5769178 87.83891002 -324.58789456 77.99972871 -312.10693359 68.86083984 C-310.26060082 67.50689267 -308.42969186 66.13455442 -306.60107422 64.75683594 C-297.25957849 57.80449031 -287.29790531 52.02937375 -277.11669922 46.40136719 C-275.9461499 45.75119629 -275.9461499 45.75119629 -274.75195312 45.08789062 C-231.40461085 21.17023973 -182.19479427 6.8384412 -133.01025391 1.73046875 C-129.6427887 1.34746646 -126.29293731 0.87085636 -122.93701172 0.39746094 C-115.01378881 -0.66738112 -107.09467642 -1.28938933 -99.11669922 -1.72363281 C-98.36557861 -1.76499359 -97.61445801 -1.80635437 -96.84057617 -1.84896851 C-64.51130937 -3.57059833 -32.20530908 -3.40978918 0 0 Z " fill="#FAF8F8" transform="translate(1395.11669921875,301.5986328125)"/>
<path d="M0 0 C17.38895812 4.92687147 30.23068002 15.92922809 39.12890625 31.46875 C39.74636719 32.6340625 40.36382813 33.799375 41 35 C41.34015137 35.64066406 41.68030273 36.28132813 42.03076172 36.94140625 C57.8298077 67.18466993 61.3411767 104.87685887 51.3359375 137.53515625 C45.48040182 155.76808806 37.64539679 171.56650977 25 186 C24.28328125 186.81855469 23.5665625 187.63710938 22.828125 188.48046875 C12.47362502 199.47725914 -0.48958262 207.48466699 -14 214 C-14.84691406 214.40863281 -15.69382812 214.81726563 -16.56640625 215.23828125 C-49.69975207 229.75864769 -90.27951978 226.34352948 -125.25 222.25 C-125.98968018 222.16485138 -126.72936035 222.07970276 -127.49145508 221.99197388 C-139.94114143 220.55637396 -152.35105017 218.88282262 -164.75756836 217.11599731 C-178.81038938 215.11591658 -192.8788245 213.4515238 -207 212 C-206.96825684 212.96615234 -206.93651367 213.93230469 -206.90380859 214.92773438 C-206.90875708 219.4447092 -207.70163194 223.72942185 -208.5390625 228.15625 C-208.87282028 229.98298833 -209.20655972 231.80973001 -209.5402832 233.63647461 C-209.80574448 235.06997757 -209.80574448 235.06997757 -210.0765686 236.53244019 C-213.05191367 252.63201891 -215.8499198 268.75138734 -218.3125 284.9375 C-218.49724884 286.1508905 -218.49724884 286.1508905 -218.68572998 287.38879395 C-220.24109591 297.64514365 -221.74555244 307.90905568 -223.0637207 318.19897461 C-223.56502809 322.07406828 -224.15389344 325.90699415 -224.8828125 329.74609375 C-226.57822172 338.88896753 -227.81432878 348.10833999 -229.125 357.3125 C-229.27451111 358.3608905 -229.42402222 359.40928101 -229.57806396 360.48944092 C-235.52459011 402.30737591 -240.93629921 444.18487564 -245.19906616 486.20924377 C-245.77374952 491.85932835 -246.37932022 497.50497295 -247.015625 503.1484375 C-251.13408832 539.77202547 -254.60438794 576.49777097 -256.60546875 613.30078125 C-256.93004547 619.15548798 -257.41852688 624.97838637 -258 630.8125 C-259.14415429 642.30237165 -259.71112489 653.82386961 -260.30273438 665.3527832 C-260.95026651 677.86635237 -260.95026651 677.86635237 -261.5 683.41796875 C-262.28070419 691.46609939 -262.5707428 699.54963482 -262.9375 707.625 C-262.97979736 708.54105011 -263.02209473 709.45710022 -263.06567383 710.40090942 C-263.76932964 725.71015578 -264.34544884 741.02281505 -264.87380981 756.33901978 C-265.00020146 759.94324499 -265.13306294 763.54718346 -265.26733398 767.15112305 C-265.6706134 778.15597565 -266.02796707 789.1537518 -266.16845703 800.16551208 C-266.2338767 804.9500597 -266.33497232 809.73354066 -266.43994141 814.5173645 C-266.47953749 816.77222894 -266.50175009 819.02747516 -266.50537109 821.28268433 C-266.54357995 840.82375795 -266.54357995 840.82375795 -272.640625 847.08984375 C-275.375 849.23168945 -275.375 849.23168945 -278 851 C-279.25824445 852.03015693 -280.51385114 853.06355257 -281.765625 854.1015625 C-282.91855342 854.95436249 -284.08009399 855.7956438 -285.25 856.625 C-285.88784424 857.08173096 -286.52568848 857.53846191 -287.18286133 858.0090332 C-305.78450917 871.11677542 -325.8191824 878.45654199 -348 883 C-348.88099365 883.18256348 -349.7619873 883.36512695 -350.66967773 883.55322266 C-382.42532752 890.03851079 -414.36901965 885.09815783 -442 868 C-445.60297738 865.56799027 -448.83643813 862.97813107 -452 860 C-452.77730469 859.27554688 -453.55460938 858.55109375 -454.35546875 857.8046875 C-466.82376032 845.14843173 -471.36050502 828.13372939 -471.34992981 810.717453 C-471.33196414 809.35979852 -471.31294891 808.00215758 -471.29296875 806.64453125 C-471.28164699 805.19424199 -471.27068362 803.7439499 -471.26005554 802.2936554 C-471.11813463 788.08148881 -470.37475326 773.90851002 -469.44528198 759.72727203 C-469.30927215 757.63791444 -469.17706582 755.5483461 -469.04589844 753.4586792 C-466.47051551 712.49850059 -463.22816428 671.58471576 -458.43652344 630.8203125 C-457.72519929 624.59503275 -457.111004 618.36079846 -456.5 612.125 C-452.3022234 569.64971971 -447.59563774 527.23953731 -441.75634766 484.95532227 C-440.37615779 474.94007883 -439.1237507 464.91494256 -437.9375 454.875 C-436.63190041 443.83916691 -435.17214218 432.83734318 -433.48217773 421.85302734 C-431.25967452 407.39661618 -429.35970978 392.89364288 -427.5 378.38671875 C-427.3763356 377.42381424 -427.2526712 376.46090973 -427.1252594 375.46882629 C-426.62298453 371.55525691 -426.12087604 367.64168099 -425.625 363.72729492 C-424.31025856 353.3642906 -422.91517235 343.05126515 -421.02735901 332.77578735 C-419.92252159 326.72766101 -419.13247906 320.66926871 -418.4375 314.5625 C-417.69503889 308.08399648 -416.79600769 301.73423671 -415.45727539 295.35131836 C-414.75796492 291.75545122 -414.37177257 288.14199426 -414 284.5 C-413.54341783 280.02718577 -412.96296458 275.65290176 -412.0390625 271.25 C-410.8215509 265.3709661 -410.11370075 259.45501962 -409.375 253.5 C-407.47679965 238.72520896 -405.16740319 224.02062879 -402.8125 209.3125 C-402.54225006 207.61625488 -402.54225006 207.61625488 -402.26654053 205.88574219 C-401.74994721 202.64855725 -401.22935798 199.41204553 -400.70703125 196.17578125 C-400.54988144 195.19269485 -400.39273163 194.20960846 -400.2308197 193.19673157 C-400.00985374 191.83925056 -400.00985374 191.83925056 -399.78442383 190.4543457 C-399.65659012 189.66324905 -399.52875641 188.8721524 -399.39704895 188.05708313 C-399 186 -399 186 -398 183 C-399.24136719 183.01933594 -400.48273438 183.03867187 -401.76171875 183.05859375 C-407.47635853 183.05747826 -413.12353917 182.56604267 -418.8125 182.0625 C-439.49630882 180.2338725 -460.11547679 179.75967542 -480.875 179.75 C-482.83539215 179.74898788 -482.83539215 179.74898788 -484.83538818 179.74795532 C-512.55526312 179.7706727 -538.92765775 181.68752676 -566 188 C-566.8775293 188.20383301 -567.75505859 188.40766602 -568.65917969 188.61767578 C-592.33296932 194.23034806 -613.28838651 203.6693503 -633 218 C-634.98845369 219.35175669 -636.99204765 220.67718353 -639 222 C-640.20937829 174.44352445 -638.85040415 117.59177574 -618 74 C-617.69400879 73.34064453 -617.38801758 72.68128906 -617.07275391 72.00195312 C-604.52130943 45.25358156 -583.90334565 26.7902243 -556.328125 16.40625 C-524.69325584 5.75092775 -492.27178766 5.41582391 -459.30206299 5.96289062 C-457.24425826 5.99606254 -455.18633922 6.02195881 -453.12841797 6.046875 C-432.81310734 6.32584365 -412.66738221 8.52591394 -392.48852539 10.72857666 C-390.07263652 10.99207754 -387.6564741 11.25292206 -385.24023438 11.51318359 C-369.61940832 13.20174637 -354.03923479 15.05447504 -338.49511719 17.35717773 C-324.70619092 19.38099848 -310.87461961 21.07949534 -297.04589844 22.80615234 C-287.08830961 24.05535 -277.15389836 25.39016743 -267.23324585 26.90589905 C-242.26657834 30.71604004 -217.16738419 33.88430609 -192 36 C-190.78860352 36.10441406 -189.57720703 36.20882812 -188.32910156 36.31640625 C-169.82784943 37.84807921 -151.37196793 38.20366662 -132.8125 38.25 C-131.20733017 38.25790054 -131.20733017 38.25790054 -129.56973267 38.26596069 C-109.82514732 38.34123559 -90.45139169 37.11344482 -71 33.625 C-69.83339844 33.4290625 -68.66679688 33.233125 -67.46484375 33.03125 C-41.68324439 28.52018389 -18.20305563 19.28800597 0 0 Z " fill="#FAF8F8" transform="translate(903,309)"/>
<path d="M0 0 C10.29201101 -0.18251842 20.38317148 0.32310785 30.625 1.25 C31.36845673 1.31624573 32.11191345 1.38249146 32.87789917 1.45074463 C44.77089057 2.52706952 56.41193417 4.0272011 68 7 C68.7022168 7.17756836 69.40443359 7.35513672 70.12792969 7.53808594 C101.69472753 15.71775041 129.68441833 30.32457171 154 52 C154.51546387 52.45375 155.03092773 52.9075 155.56201172 53.375 C204.7849212 96.78612217 230.10511097 164.98992821 234.71142578 229.47265625 C235.43436878 241.67022102 235.36794201 253.90961122 235.375 266.125 C235.37708466 267.43011536 235.37916931 268.73523071 235.38131714 270.07989502 C235.3772309 292.68815579 234.07832301 314.78464963 230.1875 337.0625 C230.05583435 337.83059998 229.9241687 338.59869995 229.78851318 339.39007568 C218.35152179 406.0442772 192.56935669 474.94808008 147 526 C145.9171875 527.24716797 145.9171875 527.24716797 144.8125 528.51953125 C134.22099772 540.57125903 122.95609443 551.52536829 110 561 C109.4548877 561.40057617 108.90977539 561.80115234 108.34814453 562.21386719 C91.01197207 574.8475573 72.0470237 584.34638672 51 589 C49.76830078 589.28617188 49.76830078 589.28617188 48.51171875 589.578125 C24.17571594 594.87678813 -5.49847049 594.53323159 -27.4375 581.74609375 C-40.74915302 572.67550091 -48.73530086 557.25310099 -51.9375 541.71484375 C-52.73360614 537.49116054 -53.42353849 533.25913301 -54 529 C-54.09571289 528.29319092 -54.19142578 527.58638184 -54.29003906 526.8581543 C-57.7580001 498.78196438 -53.19648229 469.58597708 -48 442 C-47.73364746 440.57518311 -47.73364746 440.57518311 -47.46191406 439.12158203 C-42.99177053 415.4680685 -37.88360889 391.82858664 -31.86108398 368.51904297 C-29.72120635 360.12844676 -27.93170668 351.6597745 -26.1060791 343.19665527 C-24.25041377 334.59988013 -22.30579368 326.03650743 -20.1875 317.5 C-12.86203841 287.52584073 -7.09243637 257.15985066 -1.5625 226.8125 C-1.24871399 225.09797638 -1.24871399 225.09797638 -0.92858887 223.34881592 C1.70034478 208.93804701 4.06243099 194.52019177 6 180 C6.23698608 178.24731812 6.23698608 178.24731812 6.47875977 176.45922852 C9.86061736 150.85491433 11.41554571 125.32203929 11.375 99.5 C11.37478851 98.2422879 11.37457703 96.98457581 11.37435913 95.68875122 C11.32701265 67.33269469 8.72120707 40.32989715 2.56933594 12.60498047 C1.65363952 8.41523745 0.82624588 4.20815576 0 0 Z " fill="#5B099B" transform="translate(1274,446)"/>
</svg>
